<?xml version="1.0" encoding="utf-8"?>
<!-- Generator: Adobe Illustrator 16.0.0, SVG Export Plug-In . SVG Version: 6.00 Build 0)  -->
<!DOCTYPE svg PUBLIC "-//W3C//DTD SVG 1.1//EN" "http://www.w3.org/Graphics/SVG/1.1/DTD/svg11.dtd">
<svg version="1.1" id="Calque_1" xmlns="http://www.w3.org/2000/svg" xmlns:xlink="http://www.w3.org/1999/xlink" x="0px" y="0px"
	 width="120.833px" height="54.148px" viewBox="0 0 120.833 54.148" enable-background="new 0 0 120.833 54.148"
	 xml:space="preserve">
<path fill="#FFFFFF" d="M21.508,42.495c-1.179,0.012-2.322,0.02-3.427,0.035C7.827,42.616,0.992,42.676,0.992,42.676l-0.003-0.213
	c0,0,0.427-0.041,1.227-0.115c0.8-0.066,1.974-0.182,3.469-0.291c1.493-0.115,3.308-0.264,5.39-0.391
	c1.041-0.068,2.148-0.141,3.315-0.217c1.168-0.076,2.396-0.135,3.677-0.207c1.233-0.064,2.516-0.133,3.841-0.207L21.508,42.495z"/>
<path fill="#FFFFFF" d="M33.877,42.409c0.571-0.002,1.144-0.006,1.722-0.008c6.409-0.016,13.244-0.035,20.08-0.053
	c6.839,0.018,13.675,0.037,20.081,0.053c1.602,0.006,3.178,0.008,4.721,0.012c0.772,0.002,1.532,0.002,2.288,0.006
	c0.753,0.008,1.496,0.016,2.23,0.021c2.939,0.033,5.717,0.062,8.28,0.09c10.25,0.086,17.089,0.146,17.089,0.146l0.002-0.213
	c0,0-0.427-0.041-1.227-0.115c-0.4-0.033-0.895-0.076-1.474-0.129c-0.58-0.051-1.245-0.105-1.997-0.16
	c-1.491-0.113-3.305-0.26-5.388-0.391c-1.04-0.064-2.148-0.137-3.316-0.215c-1.166-0.076-2.396-0.135-3.679-0.207
	c-1.278-0.066-2.616-0.137-3.997-0.215c-0.691-0.037-1.394-0.066-2.107-0.094c-0.716-0.029-1.437-0.062-2.174-0.092
	c-0.733-0.031-1.479-0.059-2.229-0.092c-0.756-0.027-1.519-0.051-2.291-0.08c-1.542-0.057-3.116-0.078-4.72-0.119
	c-1.604-0.037-3.231-0.072-4.883-0.109c-0.824-0.02-1.654-0.035-2.487-0.053c-0.835-0.012-1.674-0.027-2.514-0.039
	c-1.684-0.018-3.381-0.051-5.084-0.057c-1.703-0.012-3.413-0.027-5.125-0.039c-3.421,0.023-6.841,0.041-10.209,0.094
	c-0.842,0.012-1.68,0.023-2.514,0.035c-0.835,0.018-1.665,0.035-2.489,0.053c-1.651,0.039-3.28,0.078-4.884,0.109
	c-0.409,0.01-0.817,0.02-1.223,0.025L33.877,42.409z"/>
<g>
	<path fill="#FFFFFF" d="M34.606,52.143v1.172h-0.713V49.27h1.237c1.074,0,1.616,0.594,1.616,1.439s-0.536,1.434-1.755,1.434H34.606
		z M34.606,49.926v1.582h0.472c0.668,0,0.897-0.355,0.897-0.799s-0.224-0.783-0.897-0.783H34.606z"/>
	<path fill="#FFFFFF" d="M38.5,49.27h1.294c1.076,0,1.617,0.594,1.617,1.439c0,0.557-0.23,1-0.737,1.234l1.036,1.371h-0.835
		l-0.856-1.191c-0.115,0.012-0.236,0.02-0.363,0.02h-0.442v1.172H38.5V49.27z M39.213,49.926v1.582h0.529
		c0.667,0,0.897-0.355,0.897-0.799s-0.224-0.783-0.897-0.783H39.213z"/>
	<path fill="#FFFFFF" d="M45.269,49.202c1.253,0,2.163,0.881,2.163,2.088c0,1.193-0.926,2.088-2.163,2.088
		c-1.236,0-2.157-0.891-2.157-2.088C43.112,50.125,44.055,49.202,45.269,49.202z M45.276,52.75c0.782,0,1.39-0.627,1.39-1.449
		c0-0.828-0.579-1.455-1.39-1.455c-0.801,0-1.392,0.627-1.392,1.455C43.884,52.112,44.493,52.75,45.276,52.75z"/>
	<path fill="#FFFFFF" d="M49.277,49.27h1.524c1.253,0,2.163,0.848,2.163,2.02c0,1.156-0.925,2.025-2.163,2.025h-1.524V49.27z
		 M49.997,49.926v2.73h0.811c0.783,0,1.393-0.568,1.393-1.355c0-0.793-0.582-1.375-1.393-1.375H49.997z"/>
	<path fill="#FFFFFF" d="M54.771,49.27h0.713v2.373c0,0.77,0.352,1.09,0.961,1.09c0.608,0,0.984-0.32,0.984-1.098V49.27h0.712v2.373
		c0,1.203-0.684,1.746-1.696,1.746s-1.674-0.543-1.674-1.746V49.27z"/>
	<path fill="#FFFFFF" d="M63.56,53.043c0,0-0.523,0.34-1.346,0.34c-1.368,0-2.278-0.896-2.278-2.094c0-1.164,0.985-2.088,2.18-2.088
		c0.885,0,1.426,0.33,1.426,0.33l-0.246,0.607c0,0-0.536-0.264-1.059-0.264c-0.948,0-1.528,0.598-1.528,1.426
		c0,0.811,0.62,1.408,1.459,1.408c0.686,0,1.173-0.277,1.173-0.277L63.56,53.043z"/>
	<path fill="#FFFFFF" d="M64.831,49.27h3.398v0.656h-1.327v3.389h-0.72v-3.389h-1.352V49.27z"/>
	<path fill="#FFFFFF" d="M69.829,49.27h2.627v0.656h-1.914v1.133h1.737v0.633h-1.737v0.965h1.914v0.658h-2.627V49.27z"/>
	<path fill="#FFFFFF" d="M74.36,49.27h0.714v2.373c0,0.77,0.351,1.09,0.96,1.09c0.608,0,0.982-0.32,0.982-1.098V49.27h0.713v2.373
		c0,1.203-0.684,1.746-1.695,1.746c-1.013,0-1.674-0.543-1.674-1.746V49.27z"/>
	<path fill="#FFFFFF" d="M79.79,49.27h1.296c1.072,0,1.614,0.594,1.614,1.439c0,0.557-0.23,1-0.737,1.234l1.035,1.371h-0.832
		l-0.856-1.191c-0.116,0.012-0.238,0.02-0.363,0.02h-0.443v1.172H79.79V49.27z M80.503,49.926v1.582h0.529
		c0.666,0,0.897-0.355,0.897-0.799s-0.226-0.783-0.897-0.783H80.503z"/>
	<path fill="#FFFFFF" d="M87.55,49.27h0.712v3.387h1.917v0.658H87.55V49.27z"/>
	<path fill="#FFFFFF" d="M93.52,49.202c1.252,0,2.16,0.881,2.16,2.088c0,1.193-0.927,2.088-2.16,2.088
		c-1.237,0-2.16-0.891-2.16-2.088C91.359,50.125,92.306,49.202,93.52,49.202z M93.525,52.75c0.78,0,1.391-0.627,1.391-1.449
		c0-0.828-0.58-1.455-1.391-1.455c-0.8,0-1.393,0.627-1.393,1.455C92.133,52.112,92.741,52.75,93.525,52.75z"/>
	<path fill="#FFFFFF" d="M100.887,53.043c0,0-0.525,0.34-1.345,0.34c-1.371,0-2.279-0.896-2.279-2.094
		c0-1.164,0.983-2.088,2.179-2.088c0.886,0,1.427,0.33,1.427,0.33l-0.247,0.607c0,0-0.534-0.264-1.057-0.264
		c-0.95,0-1.531,0.598-1.531,1.426c0,0.811,0.623,1.408,1.46,1.408c0.685,0,1.173-0.277,1.173-0.277L100.887,53.043z"/>
	<path fill="#FFFFFF" d="M102.915,53.315h-0.746l1.897-4.08h0.16l1.899,4.08h-0.767l-0.355-0.807h-1.737L102.915,53.315z
		 M103.52,51.94h1.231l-0.614-1.393L103.52,51.94z"/>
	<path fill="#FFFFFF" d="M107.736,49.27h0.712v3.387h1.915v0.658h-2.627V49.27z"/>
</g>
<path fill="#FFFFFF" d="M110.42,14.522c1.045,1.292,2.693,4.146,0.282,7.346c-0.203,0.272-0.608,0.283-0.836,0.029
	c-0.964-1.084-2.996-3.986-0.741-7.315C109.429,14.132,110.077,14.101,110.42,14.522z"/>
<path fill="#FFFFFF" d="M119.331,22.314c-1.42-0.866-4.469-2.117-7.319,0.698c-0.243,0.238-0.197,0.642,0.084,0.832
	c1.203,0.812,4.352,2.439,7.35-0.239C119.85,23.244,119.793,22.597,119.331,22.314z"/>
<path fill="#FFFFFF" d="M113.341,19.34c0.147-3.133,2.788-3.944,3.869-4.179c0.258-0.055,0.488,0.151,0.473,0.414
	c-0.066,1.123-0.517,3.849-3.574,4.437C113.696,20.091,113.322,19.76,113.341,19.34z"/>
<g>
	<path fill="#FFFFFF" d="M69.02,11.76c1.812,0,3.372-1.559,3.372-3.371c0-1.813-1.56-3.287-3.372-3.287
		c-1.812,0-3.288,1.473-3.288,3.287C65.731,10.201,67.208,11.76,69.02,11.76z"/>
	<path fill="#FFFFFF" d="M108.218,24.069c-2.949,5.1-6.027,8.43-7.879,8.43c-0.802,0-1.56-0.633,0.335-5.354l8.767-21.706h-5.942
		l-7.775,19.163c-2.85,4.793-5.737,7.897-7.523,7.897c-0.845,0-1.519-0.76,0.338-5.354l5.351-13.361h-5.944l-1.178,2.867
		c0,0-0.802-3.415-4.721-3.415c-5.243,0-8.634,6.027-10.284,11.328c-2.858,4.814-5.794,7.934-7.588,7.934
		c-0.799,0-1.56-0.633,0.338-5.354l5.396-13.361h-5.943L59.56,24.605c-3.109,5.281-5.166,7.893-6.429,7.893
		c-0.634,0-1.645-0.633,0.296-5.396l1.391-3.54c0.379-0.97,0.504-1.603,0.504-2.107c0-3.035-4.554-5.228-6.281-6.745l1.434-3.499
		l-2.571-1.561c-1.728,0.55-3.877,2.699-3.877,4.806c0,1.012,0.548,1.812,1.307,2.614c-1.223,2.698-2.487,5.228-3.457,6.997
		c-3.373,5.395-5.396,5.605-7.798,5.521l5.774-21.917c1.096-4.256-1.559-6.913-4.847-6.913c-3.877,0-5.268,3.331-7.713,7.418
		l-8.556,14.417c-2.656-1.223-5.353-2.192-8.345-2.192c-6.07,0-9.4,4.005-9.4,8.346c0,4.214,3.119,7.628,8.515,7.628
		c5.101,0,8.725-3.16,11.548-7.543c2.066,1.096,4.342,2.276,6.534,3.16l-3.851,13.994l5.128,3.291l4.16-15.768
		c5.099,0.549,7.46-1.645,11-7.88l0,0h0c1.222-2.193,2.361-4.426,3.457-6.955c1.224,1.053,2.107,1.77,2.107,2.612
		c0,0.211-0.042,0.632-0.379,1.475l-1.434,3.541c-2.993,7.375,0,9.904,3.288,9.904c2.524,0,4.691-1.619,6.682-4.053
		c0.224,2.869,2.096,4.053,4.488,4.053c3.03,0,5.841-2.117,8.349-5.201c0.023,2.878,1.579,5.201,4.549,5.201
		c3.622,0,6.408-3.457,6.408-3.457s0.336,3.457,4.551,3.457c2.917,0,5.501-1.748,7.804-4.359c0.109,3.092,2.029,4.359,4.503,4.359
		c4.595,0,8.683-4.847,11.973-10.578C110.117,24.912,109.02,24.111,108.218,24.069z M9.631,31.571c-1.982,0-3.625-1.222-3.625-3.033
		c0-1.645,1.264-3.498,4.551-3.498c1.855,0,3.878,0.631,5.816,1.516C13.55,30.728,10.896,31.571,9.631,31.571z M28.724,27.862
		c-1.601-0.759-3.498-1.813-5.395-2.822l10.58-17.747l0.42,0.168L28.724,27.862z M82.172,28.115c0,0-2.065,3.288-4.468,3.288
		c-0.846,0-1.351-0.463-1.351-1.603c0-2.908,3.288-11.632,6.872-11.632c1.938,0,1.938,2.57,1.938,2.57L82.172,28.115z"/>
</g>
</svg>
