<?xml version="1.0" encoding="utf-8"?>
<!-- Generator: Adobe Illustrator 16.0.0, SVG Export Plug-In . SVG Version: 6.00 Build 0)  -->
<!DOCTYPE svg PUBLIC "-//W3C//DTD SVG 1.1//EN" "http://www.w3.org/Graphics/SVG/1.1/DTD/svg11.dtd">
<svg version="1.1" xmlns="http://www.w3.org/2000/svg" xmlns:xlink="http://www.w3.org/1999/xlink" x="0px" y="0px"
	 width="841.89px" height="595.28px" viewBox="0 0 841.89 595.28" enable-background="new 0 0 841.89 595.28" xml:space="preserve">
<g id="Calque_1">
	<g>
		<circle fill="#010202" cx="497.365" cy="216.438" r="3.046"/>
		<path fill="#010202" d="M497.365,209.722c-3.709,0-6.716,3.007-6.716,6.716c0,4.078,4.017,5.33,6.224,9.224
			c-0.884,0.11-1.538,0.509-1.538,0.984c0,0.561,0.909,1.015,2.03,1.015s2.03-0.454,2.03-1.015c0-0.477-0.657-0.875-1.543-0.984
			c2.187-3.895,6.228-5.146,6.228-9.224C504.08,212.729,501.074,209.722,497.365,209.722z M499.965,220.902
			c-0.857,0.833-1.786,1.737-2.604,2.87c-0.818-1.127-1.741-2.026-2.593-2.856c-1.715-1.671-2.686-2.703-2.686-4.479
			c0-2.913,2.37-5.283,5.283-5.283s5.283,2.37,5.283,5.283C502.648,218.206,501.679,219.235,499.965,220.902z"/>
	</g>
	<text transform="matrix(1 0 0 1 401.1089 241.2529)" font-family="'HelveticaNeue-Bold'" font-size="5.53">La Salle</text>
	<g>
		<text transform="matrix(1 0 0 1 467.5664 197.0298)"><tspan x="0" y="0" font-family="'HelveticaNeue-Bold'" font-size="6.64">La bergerie</tspan><tspan x="-5.285" y="7.968" font-family="'HelveticaNeue-Bold'" font-size="6.64">de Saint-Rémy</tspan></text>
	</g>
	<g>
		<text transform="matrix(1 0 0 1 515.665 239.6499)"><tspan x="0" y="0" font-family="'HelveticaNeue-Bold'" font-size="6.64">Saint-</tspan><tspan x="0.372" y="7.968" font-family="'HelveticaNeue-Bold'" font-size="6.64">Rémy</tspan></text>
	</g>
	<g>
		<text transform="matrix(1 0 0 1 389.5996 284.7144)"><tspan x="0" y="0" font-family="'HelveticaNeue-Bold'" font-size="6.64">Saint-Dié- </tspan><tspan x="-1.786" y="7.968" font-family="'HelveticaNeue-Bold'" font-size="6.64">des-Vosges</tspan></text>
	</g>
	<text transform="matrix(1 0 0 1 386.585 190.9458)" font-family="'HelveticaNeue-Bold'" font-size="6.64">Rambervilliers</text>
	<g>
		<text transform="matrix(1 0 0 1 476.1416 251.9756)" font-family="'HelveticaNeue-Bold'" font-size="5.53">Le Pâquis</text>
	</g>
	<path fill="none" stroke="#000000" stroke-width="3.2913" stroke-miterlimit="10" d="M510.909,241.283
		c-31.671,5.954-33.346-2.482-36.979-8.233c-6.753-10.689-16.987,7.765-32.639,3.321c-11.795-3.348-13.026-13.617-22.401-8.426
		c-11.805,6.537-21.599,6.421-21.599,6.421"/>
	<path fill="none" stroke="#000000" stroke-width="4.937" stroke-miterlimit="10" d="M395.158,200.63
		c3.823,20.203,3.522,14.492,2.599,21.102c-0.925,6.609-5.367,38.851-0.215,46.946"/>
	<path fill="none" stroke="#000000" stroke-width="3.2913" stroke-miterlimit="10" d="M490.475,243.31
		c-0.066-2.586,3.657-14.025,1.349-18.355c-2.309-4.329-6.138-10.813-6.282-16.296"/>
	<path fill="none" stroke="#FFFFFF" stroke-width="2.1942" stroke-miterlimit="10" d="M510.943,241.282
		c-31.67,5.953-33.344-2.483-36.978-8.234c-6.753-10.689-16.988,7.765-32.639,3.321c-11.795-3.349-13.025-13.617-22.401-8.426
		c-11.805,6.537-21.599,6.421-21.599,6.421"/>
	<path fill="none" stroke="#FFFFFF" stroke-width="3.2913" stroke-miterlimit="10" d="M395.193,200.628
		c3.823,20.203,3.523,14.493,2.598,21.103c-0.923,6.609-5.366,38.85-0.215,46.946"/>
	<path fill="none" stroke="#FFFFFF" stroke-width="2.1942" stroke-miterlimit="10" d="M490.51,243.309
		c-0.066-2.585,3.656-14.025,1.348-18.354c-2.308-4.329-6.137-10.813-6.28-16.297"/>
	<polygon points="394.91,199.595 392.357,200.113 393.061,197.029 393.765,193.946 395.615,196.511 397.461,199.078 	"/>
	<polygon points="511.326,241.253 511.031,239.65 512.953,240.126 514.873,240.605 513.246,241.731 511.619,242.856 	"/>
	<polygon points="397.975,269.43 400.177,268.041 400.614,271.173 401.049,274.306 398.409,272.564 395.772,270.82 	"/>
</g>
<g id="Calque_3">
	
		<rect x="447.281" y="231.438" fill="#FFFFFF" stroke="#000000" stroke-width="0.5486" stroke-miterlimit="10" width="13.709" height="6.948"/>
	<text transform="matrix(1 0 0 1 450.6787 236.8345)" font-family="'HelveticaNeue'" font-size="5.4856">D7</text>
	
		<rect x="388.672" y="251.976" fill="#FFFFFF" stroke="#000000" stroke-width="0.5486" stroke-miterlimit="10" width="13.708" height="6.949"/>
	<text transform="matrix(1 0 0 1 390.5449 257.3716)" font-family="'HelveticaNeue'" font-size="5.4856">D32</text>
	<circle cx="396.659" cy="234.078" r="2.294"/>
	<circle cx="490.649" cy="242.941" r="1.824"/>
</g>
</svg>
